<mxfile host="app.diagrams.net" modified="2024-03-29T07:12:04.166Z" agent="Mozilla/5.0 (Windows NT 10.0; Win64; x64) AppleWebKit/537.36 (KHTML, like Gecko) Chrome/122.0.0.0 Safari/537.36" etag="9ahACF0EpYRKFYQ4yUe0" version="24.2.0" type="github">
  <diagram name="第 1 页" id="0Rs_T8Q-2I1_C2P1qeXM">
    <mxGraphModel dx="3088" dy="746" grid="1" gridSize="10" guides="1" tooltips="1" connect="1" arrows="1" fold="1" page="1" pageScale="1" pageWidth="827" pageHeight="1169" math="0" shadow="0">
      <root>
        <mxCell id="0" />
        <mxCell id="1" parent="0" />
        <mxCell id="kWzCZohajdmwK1vvQ1A8-4" style="edgeStyle=orthogonalEdgeStyle;rounded=0;orthogonalLoop=1;jettySize=auto;html=1;exitX=0.5;exitY=1;exitDx=0;exitDy=0;entryX=0.5;entryY=0;entryDx=0;entryDy=0;" edge="1" parent="1" source="kWzCZohajdmwK1vvQ1A8-1" target="kWzCZohajdmwK1vvQ1A8-3">
          <mxGeometry relative="1" as="geometry" />
        </mxCell>
        <mxCell id="kWzCZohajdmwK1vvQ1A8-1" value="&lt;font color=&quot;#ff0303&quot; style=&quot;font-size: 17px;&quot;&gt;&lt;b&gt;MonoBehavior&lt;/b&gt;&lt;/font&gt;" style="rounded=1;whiteSpace=wrap;html=1;" vertex="1" parent="1">
          <mxGeometry x="100" y="20" width="120" height="40" as="geometry" />
        </mxCell>
        <mxCell id="kWzCZohajdmwK1vvQ1A8-3" value="&lt;font style=&quot;font-size: 20px;&quot;&gt;&lt;b&gt;MonoBase&lt;/b&gt;&lt;/font&gt;" style="rounded=1;whiteSpace=wrap;html=1;" vertex="1" parent="1">
          <mxGeometry x="100" y="110" width="120" height="60" as="geometry" />
        </mxCell>
        <mxCell id="kWzCZohajdmwK1vvQ1A8-6" value="&lt;font style=&quot;font-size: 20px;&quot;&gt;&lt;b&gt;AudioBase&lt;/b&gt;&lt;/font&gt;" style="rounded=1;whiteSpace=wrap;html=1;" vertex="1" parent="1">
          <mxGeometry x="-270" y="370" width="110" height="40" as="geometry" />
        </mxCell>
        <mxCell id="kWzCZohajdmwK1vvQ1A8-7" value="" style="endArrow=classic;html=1;rounded=0;exitX=0;exitY=1;exitDx=0;exitDy=0;entryX=0.5;entryY=0;entryDx=0;entryDy=0;" edge="1" parent="1" source="kWzCZohajdmwK1vvQ1A8-3" target="kWzCZohajdmwK1vvQ1A8-6">
          <mxGeometry width="50" height="50" relative="1" as="geometry">
            <mxPoint x="460" y="380" as="sourcePoint" />
            <mxPoint x="510" y="330" as="targetPoint" />
          </mxGeometry>
        </mxCell>
        <mxCell id="kWzCZohajdmwK1vvQ1A8-8" value="&lt;font style=&quot;font-size: 20px;&quot;&gt;&lt;b&gt;CharacterBase&lt;/b&gt;&lt;/font&gt;" style="rounded=1;whiteSpace=wrap;html=1;" vertex="1" parent="1">
          <mxGeometry x="-150" y="370" width="170" height="40" as="geometry" />
        </mxCell>
        <mxCell id="kWzCZohajdmwK1vvQ1A8-9" value="" style="endArrow=classic;html=1;rounded=0;exitX=0.25;exitY=1;exitDx=0;exitDy=0;entryX=0.5;entryY=0;entryDx=0;entryDy=0;" edge="1" parent="1" target="kWzCZohajdmwK1vvQ1A8-8" source="kWzCZohajdmwK1vvQ1A8-3">
          <mxGeometry width="50" height="50" relative="1" as="geometry">
            <mxPoint x="110" y="180" as="sourcePoint" />
            <mxPoint x="520" y="340" as="targetPoint" />
          </mxGeometry>
        </mxCell>
        <mxCell id="kWzCZohajdmwK1vvQ1A8-12" value="&lt;b style=&quot;font-size: 20px;&quot;&gt;ManagerBase&lt;/b&gt;" style="rounded=1;whiteSpace=wrap;html=1;" vertex="1" parent="1">
          <mxGeometry x="60" y="380" width="170" height="40" as="geometry" />
        </mxCell>
        <mxCell id="kWzCZohajdmwK1vvQ1A8-13" value="" style="endArrow=classic;html=1;rounded=0;entryX=0.5;entryY=0;entryDx=0;entryDy=0;exitX=0.5;exitY=1;exitDx=0;exitDy=0;" edge="1" parent="1" target="kWzCZohajdmwK1vvQ1A8-12" source="kWzCZohajdmwK1vvQ1A8-3">
          <mxGeometry width="50" height="50" relative="1" as="geometry">
            <mxPoint x="150" y="180" as="sourcePoint" />
            <mxPoint x="700" y="340" as="targetPoint" />
          </mxGeometry>
        </mxCell>
        <mxCell id="kWzCZohajdmwK1vvQ1A8-14" value="&lt;font style=&quot;font-size: 20px;&quot;&gt;&lt;b&gt;MsgCenter&lt;/b&gt;&lt;/font&gt;" style="rounded=1;whiteSpace=wrap;html=1;" vertex="1" parent="1">
          <mxGeometry x="260" y="380" width="180" height="40" as="geometry" />
        </mxCell>
        <mxCell id="kWzCZohajdmwK1vvQ1A8-15" value="" style="endArrow=classic;html=1;rounded=0;exitX=0.75;exitY=1;exitDx=0;exitDy=0;entryX=0.5;entryY=0;entryDx=0;entryDy=0;" edge="1" parent="1" target="kWzCZohajdmwK1vvQ1A8-14" source="kWzCZohajdmwK1vvQ1A8-3">
          <mxGeometry width="50" height="50" relative="1" as="geometry">
            <mxPoint x="240" y="280" as="sourcePoint" />
            <mxPoint x="630" y="450" as="targetPoint" />
          </mxGeometry>
        </mxCell>
        <mxCell id="kWzCZohajdmwK1vvQ1A8-16" value="&lt;font style=&quot;font-size: 20px;&quot;&gt;&lt;b&gt;UIBase&lt;/b&gt;&lt;/font&gt;" style="rounded=1;whiteSpace=wrap;html=1;" vertex="1" parent="1">
          <mxGeometry x="470" y="380" width="180" height="40" as="geometry" />
        </mxCell>
        <mxCell id="kWzCZohajdmwK1vvQ1A8-17" value="" style="endArrow=classic;html=1;rounded=0;exitX=1;exitY=1;exitDx=0;exitDy=0;entryX=0.5;entryY=0;entryDx=0;entryDy=0;" edge="1" parent="1" source="kWzCZohajdmwK1vvQ1A8-3" target="kWzCZohajdmwK1vvQ1A8-16">
          <mxGeometry width="50" height="50" relative="1" as="geometry">
            <mxPoint x="170" y="180" as="sourcePoint" />
            <mxPoint x="190" y="350" as="targetPoint" />
          </mxGeometry>
        </mxCell>
        <mxCell id="kWzCZohajdmwK1vvQ1A8-18" value="" style="rounded=1;whiteSpace=wrap;html=1;" vertex="1" parent="1">
          <mxGeometry x="-930" y="580" width="420" height="260" as="geometry" />
        </mxCell>
        <mxCell id="kWzCZohajdmwK1vvQ1A8-19" value="&lt;font color=&quot;#ff1f1f&quot; style=&quot;font-size: 17px;&quot;&gt;&lt;b&gt;GameObject&lt;/b&gt;&lt;/font&gt;" style="shape=callout;whiteSpace=wrap;html=1;perimeter=calloutPerimeter;" vertex="1" parent="1">
          <mxGeometry x="-690" y="520" width="140" height="60" as="geometry" />
        </mxCell>
        <mxCell id="kWzCZohajdmwK1vvQ1A8-21" value="&lt;b style=&quot;font-size: 20px;&quot;&gt;AudioManager&lt;/b&gt;" style="rounded=1;whiteSpace=wrap;html=1;" vertex="1" parent="1">
          <mxGeometry x="-300" y="660" width="170" height="40" as="geometry" />
        </mxCell>
        <mxCell id="kWzCZohajdmwK1vvQ1A8-22" value="&lt;b style=&quot;font-size: 20px;&quot;&gt;CharacterManager&lt;/b&gt;" style="rounded=1;whiteSpace=wrap;html=1;" vertex="1" parent="1">
          <mxGeometry x="-110" y="660" width="190" height="40" as="geometry" />
        </mxCell>
        <mxCell id="kWzCZohajdmwK1vvQ1A8-24" value="&lt;b style=&quot;font-size: 20px;&quot;&gt;NetManaherManager&lt;/b&gt;" style="rounded=1;whiteSpace=wrap;html=1;" vertex="1" parent="1">
          <mxGeometry x="100" y="660" width="220" height="40" as="geometry" />
        </mxCell>
        <mxCell id="kWzCZohajdmwK1vvQ1A8-25" value="&lt;b style=&quot;font-size: 20px;&quot;&gt;SceneManager&lt;/b&gt;" style="rounded=1;whiteSpace=wrap;html=1;" vertex="1" parent="1">
          <mxGeometry x="330" y="660" width="160" height="40" as="geometry" />
        </mxCell>
        <mxCell id="kWzCZohajdmwK1vvQ1A8-26" value="&lt;b style=&quot;font-size: 20px;&quot;&gt;UIManager&lt;/b&gt;" style="rounded=1;whiteSpace=wrap;html=1;" vertex="1" parent="1">
          <mxGeometry x="510" y="660" width="110" height="40" as="geometry" />
        </mxCell>
        <mxCell id="kWzCZohajdmwK1vvQ1A8-27" value="" style="endArrow=classic;html=1;rounded=0;exitX=0;exitY=1;exitDx=0;exitDy=0;entryX=0.5;entryY=0;entryDx=0;entryDy=0;" edge="1" parent="1" source="kWzCZohajdmwK1vvQ1A8-12" target="kWzCZohajdmwK1vvQ1A8-21">
          <mxGeometry width="50" height="50" relative="1" as="geometry">
            <mxPoint x="-195" y="450" as="sourcePoint" />
            <mxPoint x="-210" y="670" as="targetPoint" />
          </mxGeometry>
        </mxCell>
        <mxCell id="kWzCZohajdmwK1vvQ1A8-28" value="" style="endArrow=classic;html=1;rounded=0;exitX=0.206;exitY=1.025;exitDx=0;exitDy=0;entryX=0.642;entryY=0.075;entryDx=0;entryDy=0;entryPerimeter=0;exitPerimeter=0;" edge="1" parent="1" source="kWzCZohajdmwK1vvQ1A8-12" target="kWzCZohajdmwK1vvQ1A8-22">
          <mxGeometry width="50" height="50" relative="1" as="geometry">
            <mxPoint x="70" y="430" as="sourcePoint" />
            <mxPoint x="-205" y="670" as="targetPoint" />
          </mxGeometry>
        </mxCell>
        <mxCell id="kWzCZohajdmwK1vvQ1A8-29" value="" style="endArrow=classic;html=1;rounded=0;exitX=0.5;exitY=1;exitDx=0;exitDy=0;entryX=0.5;entryY=0;entryDx=0;entryDy=0;" edge="1" parent="1" source="kWzCZohajdmwK1vvQ1A8-12" target="kWzCZohajdmwK1vvQ1A8-24">
          <mxGeometry width="50" height="50" relative="1" as="geometry">
            <mxPoint x="105" y="431" as="sourcePoint" />
            <mxPoint x="22" y="673" as="targetPoint" />
          </mxGeometry>
        </mxCell>
        <mxCell id="kWzCZohajdmwK1vvQ1A8-30" value="" style="endArrow=classic;html=1;rounded=0;exitX=0.75;exitY=1;exitDx=0;exitDy=0;entryX=0.5;entryY=0;entryDx=0;entryDy=0;" edge="1" parent="1" source="kWzCZohajdmwK1vvQ1A8-12" target="kWzCZohajdmwK1vvQ1A8-25">
          <mxGeometry width="50" height="50" relative="1" as="geometry">
            <mxPoint x="155" y="430" as="sourcePoint" />
            <mxPoint x="220" y="670" as="targetPoint" />
          </mxGeometry>
        </mxCell>
        <mxCell id="kWzCZohajdmwK1vvQ1A8-31" value="" style="endArrow=classic;html=1;rounded=0;entryX=0.5;entryY=0;entryDx=0;entryDy=0;exitX=1;exitY=0.75;exitDx=0;exitDy=0;" edge="1" parent="1" source="kWzCZohajdmwK1vvQ1A8-12" target="kWzCZohajdmwK1vvQ1A8-26">
          <mxGeometry width="50" height="50" relative="1" as="geometry">
            <mxPoint x="223" y="424" as="sourcePoint" />
            <mxPoint x="420" y="670" as="targetPoint" />
          </mxGeometry>
        </mxCell>
      </root>
    </mxGraphModel>
  </diagram>
</mxfile>
